<?xml version="1.0" standalone="no"?>
<!DOCTYPE svg PUBLIC "-//W3C//DTD SVG 20010904//EN"
 "http://www.w3.org/TR/2001/REC-SVG-20010904/DTD/svg10.dtd">
<svg version="1.0" xmlns="http://www.w3.org/2000/svg"
 width="840.000000pt" height="859.000000pt" viewBox="0 0 840.000000 859.000000"
 preserveAspectRatio="xMidYMid meet">

<g transform="translate(0.000000,859.000000) scale(0.100000,-0.100000)"
fill="#000000" stroke="none">
<path d="M3570 8558 c-254 -19 -482 -129 -666 -320 -34 -34 -261 -308 -505
-608 -535 -658 -1084 -1331 -2026 -2485 -243 -298 -281 -357 -338 -528 l-35
-105 0 -218 c0 -191 3 -229 21 -294 26 -96 86 -224 142 -303 24 -34 254 -321
512 -637 258 -316 588 -721 734 -900 146 -179 362 -444 481 -590 119 -146 337
-413 485 -595 148 -181 309 -379 359 -440 213 -261 357 -372 576 -445 206 -69
471 -67 675 3 347 120 610 416 691 778 23 102 23 338 1 437 -40 174 -114 324
-234 472 -74 92 -1693 2075 -1908 2339 -33 40 -77 95 -98 121 l-38 48 467 574
c733 897 1606 1969 1640 2013 44 55 97 148 129 225 162 385 84 828 -199 1128
-229 242 -528 357 -866 330z"/>
<path d="M7305 8562 c-251 -12 -511 -130 -686 -309 -37 -37 -235 -275 -441
-528 -205 -253 -542 -667 -749 -920 -206 -253 -483 -593 -615 -755 -132 -162
-395 -484 -583 -715 -365 -447 -393 -485 -452 -610 -122 -261 -128 -558 -18
-833 59 -148 66 -158 620 -837 157 -192 534 -656 839 -1030 712 -873 949
-1164 1144 -1405 228 -280 308 -359 454 -445 261 -153 617 -181 902 -71 297
115 527 356 624 651 108 328 53 687 -147 955 -39 52 -117 149 -583 720 -110
135 -490 601 -843 1035 -354 435 -650 797 -657 806 -15 16 -3 31 1220 1529
695 852 865 1062 902 1115 56 81 98 167 134 274 30 88 30 90 30 321 0 231 0
233 -30 321 -55 165 -128 287 -244 407 -218 227 -506 340 -821 324z"/>
</g>
</svg>
