<?xml version="1.0" standalone="no"?>
<!DOCTYPE svg PUBLIC "-//W3C//DTD SVG 20010904//EN"
 "http://www.w3.org/TR/2001/REC-SVG-20010904/DTD/svg10.dtd">
<svg version="1.0" xmlns="http://www.w3.org/2000/svg"
 width="860.000000pt" height="1085.000000pt" viewBox="0 0 860.000000 1085.000000"
 preserveAspectRatio="xMidYMid meet">

<g transform="translate(0.000000,1085.000000) scale(0.100000,-0.100000)"
fill="#000000" stroke="none">
<path d="M7962 10429 c-52 -26 -117 -98 -148 -164 -13 -27 -215 -473 -450
-990 -524 -1154 -1315 -2889 -1627 -3565 -162 -352 -191 -415 -269 -581 -50
-104 -54 -118 -42 -140 31 -59 201 -157 289 -166 46 -5 63 -1 110 21 67 34 93
69 167 231 31 66 149 320 263 565 212 454 841 1806 1080 2320 73 157 255 548
405 870 487 1046 518 1114 535 1178 38 150 28 270 -28 344 -66 85 -198 121
-285 77z"/>
<path d="M5325 4933 c-38 -38 -146 -168 -237 -284 -58 -73 -62 -107 -19 -166
38 -53 108 -102 211 -149 78 -36 92 -39 170 -39 117 1 218 32 258 80 35 43 66
129 92 259 27 130 27 126 -19 126 -94 0 -306 94 -375 166 l-44 45 -37 -38z"/>
<path d="M4753 4431 c-309 -160 -572 -339 -708 -482 -62 -65 -245 -283 -253
-301 -2 -3 18 -21 44 -39 l47 -32 35 44 c71 87 269 282 367 362 107 87 301
217 322 217 25 0 12 -20 -29 -46 -232 -144 -491 -367 -628 -540 l-40 -52 47
-30 c27 -17 53 -32 59 -34 6 -2 39 35 74 82 79 107 241 267 348 343 45 33 130
86 189 119 60 33 117 68 129 79 21 20 44 25 44 10 0 -16 -55 -57 -137 -101
-183 -101 -348 -230 -468 -366 -72 -83 -135 -169 -135 -186 0 -26 414 -205
630 -272 183 -56 508 -136 554 -136 25 0 122 438 162 733 11 78 22 126 29 124
28 -10 -40 -432 -126 -770 -12 -48 -19 -90 -17 -93 12 -12 486 -78 613 -86
l50 -3 13 40 c30 87 62 257 73 379 19 219 -14 443 -95 643 -35 86 -137 266
-157 279 -6 3 -36 -7 -67 -24 -121 -64 -290 -80 -418 -41 -105 32 -189 84
-285 176 -47 45 -92 83 -100 83 -8 0 -82 -36 -166 -79z m1001 -433 c28 -259
25 -575 -10 -830 -17 -129 -24 -155 -42 -144 -6 3 -6 23 -1 53 50 265 59 657
23 936 -5 38 -4 47 8 47 11 0 17 -17 22 -62z m-484 -437 c0 -112 -124 -481
-152 -453 -8 8 -4 26 16 72 41 91 71 185 90 285 10 50 20 96 22 103 5 19 24
14 24 -7z"/>
<path d="M3728 3577 c-14 -18 -69 -81 -123 -140 -56 -63 -94 -112 -89 -117 14
-14 304 -146 484 -220 597 -246 1134 -377 1685 -409 122 -8 161 -7 167 2 11
18 89 229 86 232 -2 2 -100 15 -218 29 -501 61 -883 147 -1240 278 -173 64
-465 207 -600 295 -58 38 -110 72 -116 75 -5 4 -22 -8 -36 -25z m1966 -669
c-8 -48 -59 -150 -88 -177 -44 -41 -47 -13 -5 42 22 29 47 77 56 110 18 62 47
82 37 25z m-319 -20 c-10 -48 -65 -148 -81 -148 -20 0 -17 14 11 56 14 21 31
57 37 81 13 53 44 63 33 11z"/>
<path d="M3290 3117 c-487 -480 -753 -680 -1105 -833 -357 -155 -730 -245
-1500 -363 -394 -61 -385 -59 -385 -76 0 -7 17 -28 37 -46 28 -24 39 -29 41
-18 2 12 35 18 150 27 545 47 1233 177 1735 328 11 3 17 0 17 -10 0 -15 -17
-22 -140 -55 -541 -146 -1089 -245 -1617 -292 -73 -7 -133 -15 -133 -18 0 -4
44 -34 97 -67 176 -110 339 -182 371 -165 9 6 78 15 153 21 251 19 581 84 844
165 136 42 143 44 146 30 2 -13 -151 -65 -307 -105 -189 -49 -395 -87 -594
-110 -102 -11 -189 -22 -195 -24 -15 -4 417 -126 448 -126 4 0 7 6 7 14 0 10
17 17 58 21 247 29 593 120 849 223 67 27 125 47 128 44 13 -13 0 -22 -72 -53
-231 -96 -516 -178 -758 -218 -71 -12 -146 -24 -165 -28 l-35 -6 35 -9 c105
-27 273 -84 346 -118 l83 -38 100 29 c222 64 440 157 635 269 58 34 92 48 98
42 7 -7 -5 -20 -33 -38 -78 -49 -262 -142 -370 -188 -113 -47 -347 -126 -374
-126 -26 0 -15 -13 56 -71 36 -30 108 -91 160 -136 51 -46 101 -83 110 -83 25
0 239 75 373 131 191 80 336 156 527 275 47 30 91 54 98 54 27 0 6 -21 -67
-68 -239 -153 -482 -271 -771 -372 l-133 -47 33 -21 c164 -100 799 -165 1151
-117 292 40 458 111 913 388 486 296 748 484 963 692 213 205 304 331 437 608
45 95 85 179 88 188 4 14 -18 17 -171 28 -98 6 -258 23 -357 37 -118 17 -180
23 -183 16 -9 -28 -112 -187 -175 -272 -71 -95 -290 -323 -380 -395 -32 -26
-51 -35 -58 -28 -7 7 15 32 70 77 169 141 336 334 463 537 l59 94 -28 7 c-15
4 -121 30 -234 57 -388 95 -798 245 -1243 455 -65 31 -119 56 -120 56 0 0 -80
-78 -176 -173z m1675 -397 c8 -13 -123 -183 -223 -291 -119 -126 -231 -224
-244 -211 -7 7 3 21 33 48 95 81 278 276 344 367 39 53 73 96 77 96 4 1 10 -3
13 -9z m315 -63 c0 -18 -123 -197 -201 -293 -143 -176 -310 -330 -333 -307
-12 12 -6 21 23 33 64 26 301 294 435 493 57 84 76 102 76 74z m-2272 -341
c-3 -16 -217 -193 -323 -268 -148 -105 -345 -185 -593 -242 -373 -86 -783
-144 -1177 -166 -243 -14 -305 -13 -305 3 0 11 40 15 183 20 541 20 1145 113
1522 234 187 60 313 135 550 328 71 58 134 105 138 105 5 0 7 -6 5 -14z m-648
-762 c0 -28 -233 -121 -420 -168 -99 -24 -285 -56 -330 -56 -11 0 -20 6 -20
13 0 9 40 18 131 31 198 27 435 97 577 171 56 29 62 30 62 9z"/>
</g>
</svg>
