<?xml version="1.0" encoding="UTF-8"?>
<svg width="100%" height="100%" role="img" viewBox="0 0 18 17" version="1.1" xmlns="http://www.w3.org/2000/svg" xmlns:xlink="http://www.w3.org/1999/xlink">
    <title>Icon</title>
    <desc>Created with Sketch.</desc>
    <defs></defs>
    <g id="Premenu" stroke="none" stroke-width="1" fill="none" fill-rule="evenodd" transform="translate(-1190.000000, -14.000000)">
        <g id="Group-6" transform="translate(1134.000000, 10.000000)" fill="#FFFFFF">
            <path d="M69.8671846,8.05489549 C70.4361311,11.3957584 67.4797505,14.2428831 64.0110122,13.6951885 C61.9103456,13.3633196 60.2157415,11.7313229 59.8716207,9.70832696 C59.3026742,6.36746409 62.2590547,3.51960023 65.727793,4.06803391 C67.8284597,4.39990281 69.522299,6.03116042 69.8671846,8.05489549 Z M73.7029851,19.7856111 C73.8788691,20.398349 73.3848645,21 72.7073287,21 L57.0322412,21 C56.3539408,21 55.8599361,20.398349 56.0358201,19.7856111 L56.0610557,19.6939591 C56.699591,17.4640071 57.9246613,15.4565328 59.5840886,13.8252752 C59.7836787,13.6294061 60.1255054,13.6316235 60.3220366,13.8311883 C61.2312804,14.7528821 62.4548212,15.4018373 63.8205987,15.6117499 C66.0283252,15.950271 68.0632265,15.1941421 69.4098862,13.8319274 C69.6079469,13.6316235 69.9497736,13.6242322 70.1516578,13.8223187 C71.8118498,15.4543155 73.0392142,17.4625288 73.6769848,19.6939591 L73.7029851,19.7856111 Z" id="Icon"></path>
        </g>
    </g>
</svg>
