<?xml version="1.0" encoding="UTF-8"?>
<svg width="1200pt" height="1200pt" version="1.1" viewBox="320 350 500 500" xmlns="http://www.w3.org/2000/svg">
 <g fill="#19d21b">
  <path d="m576 834.96c62.316 0 122.08-24.754 166.14-68.82 44.066-44.062 68.82-103.82 68.82-166.14s-24.754-122.08-68.82-166.14c-44.062-44.066-103.82-68.82-166.14-68.82s-122.08 24.754-166.14 68.82c-44.066 44.062-68.82 103.82-68.82 166.14 0.066407 62.297 24.84 122.02 68.891 166.07 44.047 44.051 103.77 68.824 166.07 68.891zm0-433.92c52.766 0 103.38 20.961 140.69 58.273s58.273 87.922 58.273 140.69-20.961 103.38-58.273 140.69-87.922 58.273-140.69 58.273-103.38-20.961-140.69-58.273-58.273-87.922-58.273-140.69c0.0625-52.746 21.047-103.32 58.344-140.62 37.301-37.297 87.871-58.281 140.62-58.344z"/>
  <path d="m546.6 702.36 147.96-156h-0.003906c3.6992-3.3672 5.8281-8.1211 5.8789-13.121 0.054688-5-1.9766-9.7969-5.6055-13.242-3.625-3.4414-8.5234-5.2227-13.512-4.9102-4.9922 0.3125-9.6289 2.6875-12.801 6.5547l-121.32 127.8-46.68-51.719v-0.003906c-3.0938-3.8555-7.6406-6.2695-12.57-6.6758-4.9258-0.40234-9.8047 1.2383-13.488 4.543-3.6797 3.3008-5.8398 7.9727-5.9727 12.914-0.13281 4.9453 1.7734 9.7266 5.2734 13.219z"/>
 </g>
</svg>
