<?xml version="1.0" encoding="UTF-8"?>
<svg width="100%" height="100%" role="img" title="Silver Sanz Logo" aria-label="[title + description]" viewBox="0 0 56 56" version="1.1" xmlns="http://www.w3.org/2000/svg" xmlns:xlink="http://www.w3.org/1999/xlink">
    <title>Silver Sanz Logo</title>
    <desc>Imagotype</desc>
    <defs></defs>
    <g id="Symbols" stroke="none" stroke-width="1" fill="none" fill-rule="evenodd">
        <g id="Group-14" fill="#FFFFFF">
            <path d="M44,55.9862158 L56,56 L55.9848698,45 C54.5614179,50.6622432 49.8822004,55.0313356 44,55.9862158" id="Fill-13"></path>
            <path d="M0,44 L0.0163417568,56 L13,56 C6.49880749,55.2762921 1.41236945,50.3961809 0,44" id="Fill-16"></path>
            <path d="M42.6929804,41.3980372 C42.6929804,41.9020767 42.2910069,42.3109762 41.7952728,42.3109762 C41.2985412,42.3109762 40.8955702,41.9020767 40.8955702,41.3980372 C40.8955702,40.8929856 41.2985412,40.4850982 41.7952728,40.4850982 C42.2910069,40.4850982 42.6929804,40.8929856 42.6929804,41.3980372 M48.0726082,42.3697774 C48.026026,42.3985459 47.975546,42.4166966 47.9254487,42.4255301 C47.7564932,42.4553215 47.5790823,42.3797187 47.4835658,42.2228726 C47.3602464,42.0174863 47.4255188,41.7500695 47.6265099,41.6262436 C48.5215702,41.0789065 49.0002728,40.4909051 48.9416986,40.0151117 C48.8721145,39.4539017 48.0468653,38.9324114 46.7350336,38.6210754 C45.2443633,38.2662484 43.3025743,38.2078191 41.2669322,38.4557617 C40.8583583,38.505194 40.4685925,38.5636428 40.1072821,38.6283793 C40.0375388,38.6406769 39.9679713,38.6539713 39.8984038,38.6672657 C39.7008387,39.0690053 39.5073159,39.4936703 39.3207824,39.9407408 C39.1377543,40.3789714 38.9719526,40.8172477 38.8236565,41.2514095 C39.0727775,41.6360508 39.3391249,42.0207379 39.6229779,42.4013105 C40.8614448,44.0657571 42.2519779,45.4495384 43.5400969,46.2984532 C44.6713202,47.0445099 45.6125699,47.2875832 46.0563069,46.9493218 C46.4793843,46.6260085 46.5251411,45.702223 46.1793626,44.4764611 C45.7858488,43.0833726 44.9415922,41.4316353 43.8033801,39.8245361 C43.6637853,39.6302416 43.7070235,39.358488 43.8991329,39.2187566 C44.091418,39.080022 44.3577222,39.1255621 44.497317,39.3198566 C45.6930586,41.0062253 46.5825708,42.7537846 47.0019734,44.2419992 C47.2154329,44.9988044 47.2999971,45.6622026 47.2534845,46.2140791 C47.2000211,46.8586502 46.9709068,47.3399502 46.5736797,47.6432893 C46.3754695,47.7943739 46.1467887,47.8932777 45.8904086,47.9384844 C45.6134002,47.9873285 45.3031814,47.9741975 44.9626991,47.8985719 C44.3998369,47.7737721 43.7646096,47.4798221 43.0758254,47.0257383 C41.7063633,46.1233355 40.2368659,44.6650921 38.9408696,42.9213759 C38.7872024,42.7162021 38.6396048,42.5109857 38.4967429,42.3039066 C38.1945723,43.3818454 38.0140214,44.4085348 37.9698367,45.3125161 C37.9034924,46.6767217 38.1706943,47.6234325 38.6828573,47.8455577 C39.1653347,48.0544179 39.962348,47.6518089 40.8175459,46.7692628 C40.9838579,46.5981092 41.2540407,46.596717 41.4235186,46.7651875 C41.5929964,46.9336581 41.5958951,47.2085816 41.4295831,47.3797352 C40.5623905,48.2746737 39.8516029,48.6435794 39.2926746,48.7421335 C38.9066309,48.8102034 38.5940455,48.7491859 38.3506664,48.6441055 C37.8736278,48.4373695 37.5268161,48.0041783 37.3211812,47.3549339 C37.143224,46.7994724 37.0739433,46.0963806 37.1148897,45.26594 C37.1711268,44.1028983 37.4377037,42.759912 37.8818601,41.3671143 C37.4990598,40.7470535 37.1612382,40.1293392 36.8769254,39.5278833 C35.0840844,40.250995 34.1143403,41.1444891 34.1956783,41.8125671 C34.255059,42.2871905 34.8616407,42.7403528 35.8585587,43.057885 C36.0848054,43.1289876 36.2118565,43.37277 36.14187,43.6019639 C36.0718835,43.8311578 35.8328621,43.9575785 35.6066155,43.8864759 C33.8726407,43.3350863 33.4203404,42.5104268 33.346921,41.9159776 C33.2697386,41.2944429 33.5330795,40.3466798 35.226405,39.3636252 C35.6132385,39.1391994 36.0510888,38.9283882 36.5303089,38.7339205 C36.3968079,38.4018619 36.2807811,38.0769995 36.1857029,37.761804 C35.9458465,36.9644326 35.8418338,36.2654095 35.8789688,35.6833266 C35.9210178,35.0027417 36.152335,34.4994707 36.5646794,34.1842164 C36.7251482,34.0603415 36.9121173,33.9718758 37.1175527,33.9192081 C37.7842355,33.7482114 38.6314132,33.9575128 39.6345596,34.5401317 C39.841035,34.6599412 39.9120638,34.924907 39.7957238,35.1324698 C39.6793839,35.3400325 39.4177503,35.4128869 39.2112749,35.2930774 C38.4304651,34.8398041 37.762013,34.6503756 37.3318477,34.7611685 C37.234848,34.7854664 37.152448,34.8236338 37.0820523,34.8781838 C36.6375087,35.2176151 36.609349,36.20099 37.0053258,37.5103972 C37.0956274,37.8099912 37.2060709,38.1204219 37.333813,38.4370521 C37.9532949,38.2281298 38.6231316,38.0462996 39.325011,37.8968458 C40.6976744,35.2560604 42.3863584,33.4022997 43.7717328,33.1025228 C44.1386168,33.0234429 44.4796793,33.0506623 44.7867104,33.1835734 C45.3763499,33.4372579 46.0693352,34.1793962 46.0354402,36.2675764 C46.0310293,36.5067901 45.8355686,36.6964441 45.5997662,36.691774 C45.3628057,36.6862805 45.1747581,36.4871688 45.1791689,36.2479551 C45.1980595,35.0339451 44.928084,34.1863865 44.4543438,33.9811245 C44.3140219,33.9205645 44.1450881,33.9102702 43.9539634,33.9521925 C43.054259,34.1457779 41.680626,35.4599205 40.4119927,37.6969597 C40.6535348,37.659508 40.9038141,37.6256544 41.1605144,37.5937519 C43.2923183,37.3339921 45.3404846,37.3983299 46.9272228,37.7752718 C47.726434,37.9652819 48.3742458,38.2272085 48.8530082,38.5528585 C49.4111491,38.9323428 49.7267438,39.3895378 49.7914381,39.9115281 C49.8650332,40.506974 49.6265195,41.4174717 48.0726082,42.3697774 M41.5479045,28.3051564 L39.9838983,27.9752029 C34.5118715,27.3760234 30.632777,23.0066692 30.632777,17.5371324 C30.632777,11.7487755 35.2340274,7.05655262 40.9115295,7.05655262 C43.7313289,7.05655262 46.2858059,8.21442643 48.1430632,10.0888865 L45.6623978,12.880334 C44.4634594,11.6121383 42.7817537,10.823691 40.9195091,10.823691 C37.2817983,10.823691 34.3333274,13.8297096 34.3333274,17.5381446 C34.3333274,21.2465796 37.3785512,23.9874207 40.8955702,24.3861989 C42.3747929,24.847729 42.5254083,24.6523884 44.788629,25.25258 C50.0801168,26.4468904 54.5516983,30.9660395 56,36.6116865 L55.9461375,0 L0,0 L0,37.0742287 C0.893717828,32.3475935 3.71351727,28.6199281 7.73524749,26.5116666 C7.73524749,26.5116666 8.98006875,28.0055667 11.7061076,28.8203293 C7.14874517,30.032858 3.22576278,34.8505847 3.22576278,40.3039274 C3.22576278,46.9009742 8.46937285,52.2480435 14.93985,52.2480435 C21.4103272,52.2480435 26.6549347,46.9009742 26.6549347,40.3039274 C26.6549347,34.4396609 22.5833318,29.5146487 17.1162923,28.5045455 C14.9019468,28.039979 15.0974476,28.0662943 15.0974476,28.0662943 C8.51725059,26.578467 5.09498958,23.1929006 5.09498958,17.4045437 C5.09498958,11.9390555 9.19751349,7.4502702 14.4341414,6.96748541 C14.4022229,6.83388458 14.3483604,6.68004121 14.3483604,6.53631911 C14.3483604,5.55455548 15.1293661,4.75801117 16.0919082,4.75801117 L21.6646777,4.80355691 L21.6776446,5.58694356 L25.9128297,5.58694356 C26.4165435,5.58694356 26.8245017,6.00394007 26.8245017,6.51708869 C26.8245017,7.03023731 26.6110468,7.44723382 26.1073331,7.44723382 L21.6776446,7.44723382 L21.6776446,9.50590106 L26.0424986,9.50590106 C26.5472098,9.50590106 26.6938354,9.92289758 26.6938354,10.4360462 C26.6938354,10.9502069 26.4813779,11.4198341 25.9766667,11.4198341 L21.6776446,11.4329917 L21.6776446,12.2963365 L21.6307643,12.364149 C21.4133196,12.4633375 16.4140855,12.3945128 16.1607324,12.3945128 C15.1971929,12.3945128 14.4361363,11.7406785 14.4361363,10.7589149 C11.2462818,11.2255056 8.79553996,14.024038 8.79553996,17.4055559 C8.79553996,21.1139909 11.3190959,23.5228542 15.0974476,24.2536102 C16.7272857,24.7131161 17.1821242,24.6523884 18.7281763,25.1199913 C25.4500116,26.8122684 30.4342839,33.00244 30.4342839,40.3788248 C30.4342839,48.4920385 24.5283651,55.1407038 16.7901252,55.9797575 L38.2184066,56 L37.944107,55.9807696 C32.127959,54.8188473 28.4802736,50.1367456 28.5181768,50.0942363 C29.7560159,48.6995247 30.5370215,46.5072566 30.5370215,46.5072566 C33.0785316,49.9616476 36.4878257,52.3816443 41.0003028,52.3816443 C47.4697825,52.3816443 52.71439,47.0335629 52.71439,40.4365161 C52.71439,34.209908 47.7939547,29.0652641 41.5479045,28.3051564" id="Fill-1"></path>
            <path d="M38.371,39.27 C38.5,39.056 38.634,38.841 38.772,38.628 C38.911,38.414 39.052,38.205 39.194,38 C38.774,38.03 38.376,38.072 38,38.126 C38.105,38.499 38.229,38.881 38.371,39.27" id="Fill-4"></path>
        </g>
    </g>
</svg>
