<?xml version="1.0" encoding="UTF-8"?>
<svg width="100%" height="100%" role="img" title="Silver Sanz Logo" aria-label="[title + description]" viewBox="0 0 139 39" version="1.1" xmlns="http://www.w3.org/2000/svg" xmlns:xlink="http://www.w3.org/1999/xlink">
    <title>Silver Sanz Logo</title>
    <desc>Brand</desc>
    <defs></defs>
    <g id="Invision-(desktop)" stroke="none" stroke-width="1" fill="none" fill-rule="evenodd">
        <g id="Group-19" fill="#43484D">
            <path d="M54.1479999,14.0800002 L53.0223999,14.8024002 C52.5183999,13.9288002 51.9135999,13.4248002 50.8383999,13.4248002 C49.7127999,13.4248002 48.7384,14.2312002 48.7384,15.3904002 C48.7384,16.4824001 49.8639999,16.9864001 50.7207999,17.3728001 L51.5607999,17.7424001 C53.2071999,18.4648001 54.6015999,19.2880001 54.6015999,21.3040001 C54.6015999,23.5216 52.8207999,25.2184 50.6199999,25.2184 C48.5872,25.2184 47.0752,23.908 46.672,21.9424001 L48.0496,21.5560001 C48.2344,22.8496 49.2255999,23.908 50.5863999,23.908 C51.9471999,23.908 53.1903999,22.8664 53.1903999,21.4384001 C53.1903999,19.9600001 52.0311999,19.4560001 50.8551999,18.9184001 L50.0823999,18.5824001 C48.604,17.9104001 47.3272,17.1544001 47.3272,15.3400002 C47.3272,13.3744002 48.9903999,12.1144002 50.8719999,12.1144002 C52.2831999,12.1144002 53.4759999,12.8368002 54.1479999,14.0800002 Z M57.9447998,12.3328002 L57.9447998,25 L56.5335998,25 L56.5335998,12.3328002 L57.9447998,12.3328002 Z M61.7583997,12.3328002 L61.7583997,23.6896 L65.2527996,23.6896 L65.2527996,25 L60.3471997,25 L60.3471997,12.3328002 L61.7583997,12.3328002 Z M65.4879996,12.3328002 L69.0999995,21.9928001 L72.7119994,12.3328002 L74.2407994,12.3328002 L69.0999995,25.756 L63.9591996,12.3328002 L65.4879996,12.3328002 Z M75.4503993,25 L75.4503993,12.3328002 L82.0191992,12.3328002 L82.0191992,13.6432002 L76.8615993,13.6432002 L76.8615993,17.4064001 L81.8679992,17.4064001 L81.8679992,18.7168001 L76.8615993,18.7168001 L76.8615993,23.6896 L82.0191992,23.6896 L82.0191992,25 L75.4503993,25 Z M85.6647991,13.6432002 L85.6647991,18.1960001 L86.1015991,18.1960001 C87.6975991,18.1960001 89.3103991,17.8936001 89.3103991,15.9280002 C89.3103991,13.8448002 87.7815991,13.6432002 86.0847991,13.6432002 L85.6647991,13.6432002 Z M85.6647991,19.4392001 L85.6647991,25 L84.2535992,25 L84.2535992,12.3328002 L86.0847991,12.3328002 C88.4871991,12.3328002 90.721599,12.9712002 90.721599,15.8272002 C90.721599,17.7760001 89.4951991,19.1536001 87.5463991,19.3216001 L91.578399,25 L89.8479991,25 L86.0175991,19.4392001 L85.6647991,19.4392001 Z M102.268799,14.0800002 L101.143199,14.8024002 C100.639199,13.9288002 100.034399,13.4248002 98.959199,13.4248002 C97.833599,13.4248002 96.8591991,14.2312002 96.8591991,15.3904002 C96.8591991,16.4824001 97.984799,16.9864001 98.841599,17.3728001 L99.681599,17.7424001 C101.327999,18.4648001 102.722399,19.2880001 102.722399,21.3040001 C102.722399,23.5216 100.941599,25.2184 98.740799,25.2184 C96.7079991,25.2184 95.1959991,23.908 94.7927991,21.9424001 L96.1703991,21.5560001 C96.3551991,22.8496 97.3463991,23.908 98.707199,23.908 C100.067999,23.908 101.311199,22.8664 101.311199,21.4384001 C101.311199,19.9600001 100.151999,19.4560001 98.975999,18.9184001 L98.203199,18.5824001 C96.7247991,17.9104001 95.4479991,17.1544001 95.4479991,15.3400002 C95.4479991,13.3744002 97.1111991,12.1144002 98.992799,12.1144002 C100.403999,12.1144002 101.596799,12.8368002 102.268799,14.0800002 Z M111.928799,21.4048001 L106.519199,21.4048001 L104.990399,25 L103.444799,25 L109.291199,11.7280002 L114.986399,25 L113.423999,25 L111.928799,21.4048001 Z M111.374399,20.0944001 L109.257599,15.0208002 L107.090399,20.0944001 L111.374399,20.0944001 Z M116.279999,25 L116.279999,11.7952002 L126.158398,22.144 L126.158398,12.3328002 L127.569598,12.3328002 L127.569598,25.5712 L117.691199,15.2392002 L117.691199,25 L116.279999,25 Z M131.332798,23.6896 L138.069598,23.6896 L138.069598,25 L128.997598,25 L135.902398,13.6432002 L129.871198,13.6432002 L129.871198,12.3328002 L138.254398,12.3328002 L131.332798,23.6896 Z" id="SILVER-SANZ" fill-rule="nonzero"></path>
            <g id="Group">
                <path d="M30.8336058,38.8174863 L39.3984962,38.8275035 L39.3876972,30.8336058 C38.3717214,34.9484597 35.0319726,38.1235577 30.8336058,38.8174863" id="Fill-13"></path>
                <path d="M0,30.2626131 L0.011484337,38.8275035 L9.13588319,38.8275035 C4.56710355,38.3109637 0.992557103,34.8278288 0,30.2626131" id="Fill-16"></path>
                <g id="Page-1">
                    <path d="M30.0364912,28.7031579 C30.0364912,29.0526316 29.7536842,29.3361404 29.4049123,29.3361404 C29.0554386,29.3361404 28.7719298,29.0526316 28.7719298,28.7031579 C28.7719298,28.3529825 29.0554386,28.0701754 29.4049123,28.0701754 C29.7536842,28.0701754 30.0364912,28.3529825 30.0364912,28.7031579 M33.8167703,29.3660133 C33.7839618,29.3860499 33.7484306,29.3987283 33.7131848,29.4049431 C33.5943168,29.4259027 33.4696864,29.3737701 33.4027891,29.2651398 C33.3164244,29.1228881 33.362793,28.9372796 33.5043537,28.8510367 C34.1347496,28.4698131 34.4724175,28.0611089 34.4320558,27.7311753 C34.3841006,27.3420115 33.804663,26.9817175 32.8826752,26.7680465 C31.834997,26.5245198 30.4695576,26.4873774 29.0375826,26.6629146 C28.7501713,26.6979162 28.4759709,26.7391393 28.2217705,26.7846743 C28.1727029,26.7933262 28.1237572,26.8026693 28.0748114,26.8120123 C27.9351751,27.091025 27.7983416,27.3859329 27.6663842,27.6963703 C27.5369073,28.0006697 27.4195445,28.3049708 27.3144996,28.6063874 C27.4890203,28.8727606 27.675655,29.1391354 27.8746076,29.4026258 C28.7426421,30.5550146 29.718105,31.5124536 30.6224795,32.0990593 C31.4166981,32.6145908 32.0781974,32.7815575 32.3908405,32.5461473 C32.688929,32.3211419 32.7227183,31.6802751 32.4816917,30.8306243 C32.2073877,29.8649901 31.6165549,28.7207295 30.8189234,27.6079451 C30.7210939,27.4734156 30.7519747,27.2848374 30.8873172,27.1875771 C31.0227816,27.0910079 31.2099776,27.1221324 31.3078071,27.256662 C32.1457573,28.4243316 32.7682484,29.6349805 33.0605925,30.666554 C33.2093854,31.1911422 33.2676969,31.6511632 33.2340248,32.0340554 C33.1953029,32.4812576 33.0333413,32.8155126 32.7534666,33.0266177 C32.613814,33.1317638 32.4528243,33.2007677 32.2724489,33.2325728 C32.0775607,33.2669368 31.8594257,33.2583696 31.6201173,33.2065056 C31.2245084,33.1209196 30.7783047,32.9181283 30.294717,32.604353 C29.3332323,31.980787 28.3023685,30.9718348 27.3940154,29.7645608 C27.2863086,29.6225093 27.1828702,29.4804178 27.0827654,29.3370259 C26.8683869,30.0852689 26.7396256,30.7977505 26.7069763,31.4248773 C26.6579407,32.371279 26.844196,33.0275021 27.2039814,33.1806866 C27.5429139,33.3247215 28.1041069,33.0440601 28.7070547,32.4303872 C28.8243103,32.3113758 29.0143158,32.3099388 29.1332053,32.4265033 C29.2520949,32.5430678 29.2536537,32.7337644 29.1363981,32.8527758 C28.5249936,33.4750657 28.0244966,33.7321983 27.6312646,33.8015357 C27.359665,33.8494261 27.1399492,33.8076464 26.968979,33.7351815 C26.6338675,33.5926105 26.3907318,33.2927309 26.2472539,32.842739 C26.1230764,32.4577516 26.075582,31.9701704 26.1058256,31.394061 C26.1474026,30.587215 26.3372125,29.6551829 26.6519901,28.6882892 C26.3838717,28.2588497 26.14738,27.8309593 25.9484893,27.4142533 C24.6864326,27.9189697 24.0029124,28.5404365 24.058947,29.0037093 C24.0998779,29.3328298 24.5256592,29.6461093 25.2261767,29.8646276 C25.3851581,29.9135535 25.4740801,30.0824324 25.4244631,30.2415356 C25.3748461,30.4006388 25.2065364,30.4887479 25.047555,30.439822 C23.8291186,30.0603734 23.512482,29.4891345 23.4618876,29.0769208 C23.4086941,28.6459258 23.5955389,27.9880473 24.7880659,27.3031943 C25.0604937,27.1468457 25.3687748,26.9998521 25.7061202,26.8641229 C25.6128163,26.6340222 25.5317885,26.4088827 25.4654756,26.190412 C25.2981902,25.6377311 25.2262638,25.1530327 25.253394,24.7492041 C25.2841516,24.2770407 25.4477008,23.9275416 25.7382273,23.708145 C25.8512912,23.6219388 25.9829295,23.5602481 26.1274915,23.5233567 C26.596627,23.4035813 27.1920301,23.5472861 27.8964652,23.9496718 C28.0414577,24.0324179 28.0909457,24.2160885 28.0087689,24.360268 C27.9265921,24.5044476 27.7424741,24.5554397 27.5974816,24.4726936 C27.0491766,24.159641 26.5794255,24.0294093 26.2767233,24.1070116 C26.208467,24.1240351 26.1504536,24.1506538 26.1008534,24.1886154 C25.787641,24.4248386 25.7661227,25.1070091 26.0423048,26.0145932 C26.1052857,26.22225 26.1824124,26.4373887 26.2716933,26.6567975 C26.7077014,26.5107972 27.1790737,26.3835016 27.6729233,26.2786081 C28.6428399,24.4444237 29.8336217,23.1556105 30.8083937,22.9452526 C31.0665387,22.8897586 31.3063396,22.9080445 31.5220239,22.9997031 C31.9362387,23.1746437 32.4222783,23.6882217 32.3947994,25.1367542 C32.3912802,25.3026933 32.2534938,25.4345884 32.0876765,25.4317603 C31.9210463,25.428363 31.7891513,25.2905766 31.7926704,25.1246375 C31.8080727,24.2825023 31.619694,23.6950613 31.2868995,23.553507 C31.1883254,23.5117441 31.0695425,23.5048981 30.9350631,23.5343111 C30.3020184,23.6701617 29.333734,24.5841174 28.4376796,26.1380603 C28.6076067,26.1116605 28.7836719,26.0877412 28.9642492,26.0651641 C30.4638695,25.8812621 31.9041072,25.9223175 33.0193055,26.1810166 C33.5810103,26.3114237 34.0361198,26.4919799 34.3722361,26.717033 C34.7640804,26.97929 34.9852213,27.2958744 35.0298063,27.6578419 C35.0805226,28.0707467 34.9112022,28.7027326 33.8167703,29.3660133 M29.2308772,19.6252632 L28.1305263,19.3964912 C24.2807018,18.9810526 21.5515789,15.9515789 21.5515789,12.1592982 C21.5515789,8.14596491 24.7887719,4.89263158 28.7831579,4.89263158 C30.7670175,4.89263158 32.5642105,5.6954386 33.8708772,6.99508772 L32.125614,8.93052632 C31.2821053,8.05122807 30.0989474,7.5045614 28.7887719,7.5045614 C26.2294737,7.5045614 24.1550877,9.58877193 24.1550877,12.16 C24.1550877,14.7312281 26.2975439,16.6315789 28.7719298,16.9080702 C29.8126316,17.2280702 29.9185965,17.0926316 31.5108772,17.5087719 C35.2336842,18.3368421 38.3796491,21.4701754 39.3985965,25.3845614 L39.3607018,0 L0,0 L0,25.7052632 C0.62877193,22.4280702 2.61263158,19.8435088 5.44210526,18.3817544 C5.44210526,18.3817544 6.31789474,19.4175439 8.23578947,19.9824561 C5.02947368,20.8231579 2.26947368,24.1635088 2.26947368,27.9445614 C2.26947368,32.5185965 5.95859649,36.2259649 10.5108772,36.2259649 C15.0631579,36.2259649 18.7529825,32.5185965 18.7529825,27.9445614 C18.7529825,23.8785965 15.8884211,20.4638596 12.0421053,19.7635088 C10.4842105,19.4414035 10.6217544,19.4596491 10.6217544,19.4596491 C5.9922807,18.4280702 3.5845614,16.0807018 3.5845614,12.0673684 C3.5845614,8.27789474 6.47087719,5.16561404 10.1550877,4.83087719 C10.1326316,4.73824561 10.0947368,4.63157895 10.0947368,4.53192982 C10.0947368,3.85122807 10.6442105,3.29894737 11.3214035,3.29894737 L15.2421053,3.33052632 L15.2512281,3.87368421 L18.2308772,3.87368421 C18.5852632,3.87368421 18.8722807,4.16280702 18.8722807,4.51859649 C18.8722807,4.87438596 18.7221053,5.16350877 18.3677193,5.16350877 L15.2512281,5.16350877 L15.2512281,6.59087719 L18.3221053,6.59087719 C18.677193,6.59087719 18.7803509,6.88 18.7803509,7.23578947 C18.7803509,7.5922807 18.6308772,7.91789474 18.2757895,7.91789474 L15.2512281,7.92701754 L15.2512281,8.52561404 L15.2182456,8.57263158 C15.0652632,8.64140351 11.5480702,8.59368421 11.3698246,8.59368421 C10.6919298,8.59368421 10.1564912,8.14035088 10.1564912,7.45964912 C7.9122807,7.78315789 6.18807018,9.72350877 6.18807018,12.0680702 C6.18807018,14.6392982 7.96350877,16.3094737 10.6217544,16.8161404 C11.7684211,17.1347368 12.0884211,17.0926316 13.1761404,17.4168421 C17.9052632,18.5901754 21.4119298,22.8821053 21.4119298,27.9964912 C21.4119298,33.6217544 17.2568421,38.2315789 11.8126316,38.8133333 L26.8884211,38.8273684 L26.6954386,38.8140351 C22.6035088,38.0084211 20.037193,34.7621053 20.0638596,34.7326316 C20.9347368,33.765614 21.4842105,32.245614 21.4842105,32.245614 C23.2722807,34.6407018 25.6708772,36.3185965 28.845614,36.3185965 C33.397193,36.3185965 37.0870175,32.6105263 37.0870175,28.0364912 C37.0870175,23.7192982 33.6252632,20.1522807 29.2308772,19.6252632" id="Fill-1"></path>
                    <path d="M26.9270175,27.5578947 C27.0175439,27.4077193 27.1115789,27.2568421 27.2084211,27.1073684 C27.3059649,26.957193 27.4049123,26.8105263 27.5045614,26.6666667 C27.2098246,26.6877193 26.9305263,26.717193 26.6666667,26.7550877 C26.7403509,27.0168421 26.8273684,27.2849123 26.9270175,27.5578947" id="Fill-4"></path>
                </g>
            </g>
        </g>
    </g>
</svg>
